<?xml version="1.0" encoding="UTF-8" standalone="no"?>
<!-- Created with Inkscape (http://www.inkscape.org/) -->

<svg
   width="48mm"
   height="48mm"
   viewBox="0 0 48 48"
   version="1.1"
   id="svg6063"
   inkscape:version="1.1.1 (3bf5ae0d25, 2021-09-20, custom)"
   sodipodi:docname="motley-cue-notext.svg"
   xmlns:inkscape="http://www.inkscape.org/namespaces/inkscape"
   xmlns:sodipodi="http://sodipodi.sourceforge.net/DTD/sodipodi-0.dtd"
   xmlns="http://www.w3.org/2000/svg"
   xmlns:svg="http://www.w3.org/2000/svg">
  <sodipodi:namedview
     id="namedview6065"
     pagecolor="#ffffff"
     bordercolor="#666666"
     borderopacity="1.0"
     inkscape:pageshadow="2"
     inkscape:pageopacity="0.0"
     inkscape:pagecheckerboard="0"
     inkscape:document-units="mm"
     showgrid="false"
     fit-margin-top="0"
     fit-margin-left="0"
     fit-margin-right="0"
     fit-margin-bottom="0"
     inkscape:zoom="0.64765011"
     inkscape:cx="76.430157"
     inkscape:cy="84.922397"
     inkscape:window-width="1274"
     inkscape:window-height="1397"
     inkscape:window-x="1280"
     inkscape:window-y="37"
     inkscape:window-maximized="1"
     inkscape:current-layer="layer1" />
  <defs
     id="defs6060" />
  <g
     inkscape:label="Layer 1"
     inkscape:groupmode="layer"
     id="layer1"
     transform="translate(-82.695976,-125.79604)">
    <g
       id="g16077"
       transform="translate(-1311.2984,-2204.7406)">
      <path
         id="path62839-9"
         style="fill:#fd5f00;fill-opacity:1;stroke:none;stroke-width:3.77999;stroke-linecap:round;stroke-linejoin:round;stop-color:#000000"
         d="m 1406.5336,2358.5938 c -11.1303,5.4537 -11.0392,18.4426 -11.0392,18.4426 h 45 c 0,0 -0.096,-12.9547 -11.1129,-18.421 -1.5573,1.4921 -3.5382,2.6919 -5.7773,3.4221 -5.1472,1.7485 -11.4179,0.8224 -15.5589,-2.1943 -0.546,-0.3845 -1.0501,-0.8031 -1.5117,-1.2494 z" />
      <path
         id="path58804-2-7"
         style="font-variation-settings:normal;fill:#fd5f00;fill-opacity:1;stroke:none;stroke-width:14.2866;stroke-linecap:round;stroke-linejoin:round;stroke-miterlimit:4;stroke-dasharray:none;stroke-dashoffset:0;stroke-opacity:1;stop-color:#000000"
         d="m 5359.5977,8813.998 c -0.8344,0 -1.6694,0.023 -2.5039,0.067 -18.268,0.7162 -35.7859,11.2937 -44.6504,27.3125 -10.3919,17.8798 -9.0451,41.7332 3.4296,58.2558 11.8935,16.7426 33.9945,25.274 54.0782,20.9785 21.0474,-3.9209 38.5646,-21.6739 42.2734,-42.7285 3.7425,-18.6856 -3.3966,-39.0579 -18.1484,-51.1777 -9.5631,-8.0394 -21.9629,-12.7292 -34.4785,-12.7071 z m -0.2364,14.502 c 1.0534,0 2.1047,0.033 3.1485,0.086 5.8507,0.2835 11.6053,1.6045 16.9843,3.9629 8.0206,3.4916 14.7213,9.249 19.8164,16.3262 0.6603,0.9426 0.1883,2.3573 -0.7558,2.9238 -1.0379,0.6603 -2.2628,0.1883 -2.9238,-0.7558 -5.1897,-7.0768 -12.4553,-12.8313 -20.5704,-15.6621 -2.736,-0.9438 -5.5675,-1.6041 -8.3984,-2.0762 -0.094,-0.095 -0.2837,-0.096 -0.4726,-0.096 -0.5666,-0.095 0.4724,0.094 -0.094,0 -0.2831,0 -0.5661,-0.094 -0.8496,-0.094 -0.4721,-0.098 -1.0377,-0.1933 -1.5098,-0.1933 -0.8489,0 -1.7933,-0.094 -2.6425,-0.094 -1.6982,-0.091 -3.4902,-0.091 -5.2833,0 -4.0569,0.2827 -8.021,1.1318 -11.7949,2.4531 -3.208,1.1324 -6.323,2.736 -9.248,4.6231 -2.4537,1.6044 -4.3396,3.1153 -6.5098,5.1914 -1.415,1.4151 -2.8314,2.9241 -4.0586,4.4336 -0.047,0.093 -0.1173,0.1642 -0.1875,0.2344 0.1147,-0.1549 -0.1161,0.092 -0.1894,0.2383 0.047,-0.095 0.1166,-0.1656 0.1875,-0.2364 -0.033,0.045 -0.083,0.1105 -0.1875,0.2364 -0.095,0.1886 -0.19,0.3736 -0.3789,0.5664 -0.189,0.1886 -0.2825,0.2799 -0.377,0.4726 v 0 c -1.5092,2.3592 -5.1893,0.1889 -3.5879,-2.1699 1.9813,-3.1143 4.7171,-5.8514 7.4531,-8.3047 5.4732,-4.718 11.89,-8.3973 18.8731,-10.3789 4.3701,-1.2268 8.9881,-1.7067 13.5527,-1.6914 z m -0.3965,10.7402 c 6.7021,-0.088 13.4393,1.5438 19.4903,4.7286 4.1518,2.1702 7.7371,5.2827 10.5683,8.9628 2.5471,3.2081 4.8115,6.9841 6.1328,10.9473 1.9809,6.0393 2.453,13.4927 -1.7929,18.5879 -3.4919,4.1522 -9.7193,5.4744 -14.8145,3.9648 -2.9253,-0.8504 -5.3788,-2.549 -7.1718,-4.9082 -0.4721,-0.5661 -0.9431,-1.3217 -1.2266,-1.9824 -0.2831,-0.5669 -0.5669,-1.3198 -0.7559,-1.9805 -0.095,-0.2834 -0.093,-0.6618 -0.1875,-0.9453 0,-0.2831 -0.096,-0.4666 -0.096,-0.7539 0,0.098 0.095,0.4744 0,-0.092 -0.2827,-2.1709 -0.1883,-4.1503 -1.3203,-5.9433 -0.9434,-1.5107 -2.4526,-2.6441 -4.0566,-3.3047 -4.3404,-1.7919 -9.5296,-1.0365 -12.1719,3.3047 -1.2265,2.0757 -1.6057,4.4338 -1.3223,6.7929 0,0.2831 0.096,0.5662 0.096,0.8497 0.095,0.094 0.094,0.1917 0.094,0.3769 0.095,0.5658 0.1887,1.1323 0.2832,1.793 0.2831,1.4158 0.6611,2.8306 1.1328,4.1523 0.095,0.3768 0.188,0.7549 0.377,1.1328 0,0.094 0.095,0.2799 0.1894,0.4727 0.189,0.3779 -0.095,-0.1944 0.094,0.1836 0.3772,0.7555 0.7548,1.5108 1.1328,2.2656 1.8875,3.3026 3.9626,5.9451 6.9824,8.3984 3.586,3.0203 8.2112,5.1893 12.7402,6.6993 2.6423,0.8488 1.5091,5.0012 -1.1328,4.1523 -2.5474,-0.85 -5.0943,-1.7931 -7.4531,-3.0195 -7.3603,-3.6805 -13.306,-9.72 -16.4199,-17.3633 -2.7364,-6.6051 -4.1519,-15.1911 0.9433,-21.041 6.6996,-7.7379 21.5138,-4.5301 23.5899,5.8496 0.094,0.8492 0.2851,1.6042 0.2851,2.3594 0.095,0.472 -0.095,1.1314 0.094,1.6035 -0.378,-0.8485 -0.095,-0.095 0,0.2832 0,0.2827 0.095,0.6618 0.1894,0.9453 0.1886,0.5662 0.2818,0.7529 0.4707,1.1309 0.943,1.7914 2.2656,3.1148 4.0586,4.0585 2.3592,1.2269 5.1893,1.415 7.6426,0.6602 1.1324,-0.2838 2.2633,-0.7546 3.207,-1.5098 0.189,-0.095 0.4724,-0.3786 0.7559,-0.6621 l 0.4727,-0.4707 0.1875,-0.2832 c 1.1319,-1.5091 1.5095,-2.5484 1.7929,-4.4355 v -0.377 -0.6621 -1.2266 c 0,-0.8488 8e-4,-1.6049 -0.094,-2.3593 0,-0.094 -0.095,-0.9432 0,-0.377 0,-0.1882 -0.094,-0.3812 -0.094,-0.5664 -0.095,-0.3772 -0.095,-0.7499 -0.1894,-1.0371 -0.094,-0.5658 -0.19,-1.133 -0.3789,-1.6992 -0.189,-0.6607 -0.3767,-1.3214 -0.6602,-1.9824 -0.095,-0.094 -0.189,-0.378 0,0 -0.2831,-0.6615 -0.6599,-1.321 -0.9434,-1.9825 -0.5661,-1.2268 -1.228,-2.4516 -1.8886,-3.5839 -1.2261,-2.0758 -2.546,-4.057 -4.2442,-5.7559 -3.1143,-3.3029 -6.9841,-5.7577 -11.2304,-7.3613 -5.3783,-2.0761 -11.1348,-2.9248 -16.8907,-2.3594 -5.2849,0.4721 -10.3795,2.4539 -14.8144,5.2851 -1.7923,1.132 -3.3026,2.3581 -4.8125,3.7735 -1.3213,1.2268 -2.4527,2.5482 -3.3965,3.8691 -2.0761,2.9261 -3.2086,5.662 -4.1523,9.0586 -0.2827,0.7552 -0.3775,1.6043 -0.5664,2.4531 -0.095,0.3772 -0.095,0.7549 -0.1895,1.1329 0,0.04 -0.019,0.1687 -0.031,0.2636 0.01,-0.026 0.018,-0.052 0.031,-0.078 -0.053,0.2664 -0.047,0.2011 -0.031,0.078 -0.06,0.1615 -0.063,0.3224 -0.063,0.4883 -0.1889,1.5099 -0.2832,3.1135 -0.2832,4.6231 0,1.5106 5e-4,2.9263 0.1895,4.3418 0,0.3768 0.094,0.7529 0.094,1.1308 0.094,0.1886 0.094,0.2799 0.094,0.4727 0.095,0.5654 0.1907,1.2268 0.2852,1.7929 0.4716,2.736 1.0363,5.378 2.0742,7.9258 v 0 c 0.472,1.1324 -0.4713,2.4506 -1.0371,2.5489 -1.2272,0.3775 -2.1705,-0.3775 -2.6426,-1.5098 0,-0.1879 -0.095,-0.3717 -0.1895,-0.5645 -1.3209,-3.775 -2.0751,-7.7379 -2.4531,-11.7011 -0.6607,-6.6044 0.095,-13.3049 2.6426,-19.3438 3.3029,-7.8323 9.9078,-13.7784 17.5508,-17.2695 4.8301,-2.2292 10.0216,-3.3375 15.2343,-3.4063 z m 0.1582,10.916 c 7.5688,-0.051 15.3813,3.149 20.0879,9.0938 3.3967,4.2463 5.5679,9.6249 5.3789,15.0977 v 0 c 0,2.8286 -4.3403,2.8289 -4.5293,0.1855 0,-0.6599 8e-4,-1.4155 -0.094,-2.1699 0,-0.189 -0.095,-0.9427 0,-0.1875 0,-0.2831 -0.096,-0.4724 -0.096,-0.7559 -0.189,-1.2264 -0.5654,-2.3598 -0.9434,-3.4922 -0.095,-0.2823 -0.2824,-0.6579 -0.3769,-0.9414 -0.189,-0.4762 0.093,0.2787 -0.096,-0.1933 0,-0.1886 -0.095,-0.2799 -0.1895,-0.4727 -0.2831,-0.6603 -0.5654,-1.3209 -0.9433,-1.8867 -0.9438,-1.6044 -1.6033,-2.4525 -2.8301,-3.6797 -2.2651,-2.358 -5.0955,-4.0582 -8.3984,-5.0957 -4.4349,-1.4154 -9.1527,-1.604 -13.6817,-0.094 -1.982,0.6606 -3.6808,1.6039 -5.3789,2.7363 -1.2268,0.9434 -2.1716,1.6032 -3.3984,2.8301 -2.4537,2.4529 -4.1511,5.6627 -4.9063,9.1543 -0.3768,1.793 -0.5664,3.5855 -0.5664,5.4726 0,0.8489 0.095,1.7914 0.1895,2.6406 0,0.2831 0.094,0.6619 0.094,0.9454 0.017,0.1018 0.018,0.1082 0.019,0.125 0.071,0.1 0.076,0.2617 0.076,0.3476 0.095,0.5658 0.188,1.2253 0.377,1.8867 1.6981,8.0198 6.0403,15.0961 11.8906,20.7578 1.9812,1.8883 -1.0379,4.9086 -3.0195,3.0215 -6.9831,-6.6996 -11.985,-15.4762 -13.4004,-25.1015 -0.7548,-5.2838 -0.3773,-10.7568 1.7929,-15.7578 3.3971,-7.643 11.5116,-13.2102 19.7207,-14.2481 1.0616,-0.1415 2.1395,-0.2153 3.2207,-0.2227 z m 0.1153,21.9317 c 1.0734,-0.011 2.1347,0.6497 2.1347,1.9707 v 1.6973 c 0,0.016 0.01,0.083 0.014,0.125 0.025,-0.043 0.082,0.3677 0.082,0.4414 0.1889,0.8492 0.3766,1.6992 0.6601,2.5488 0.1882,0.4709 0.2837,0.942 0.4727,1.4141 0.095,0.283 0.1887,0.4724 0.2832,0.7558 0.024,0.024 0.047,0.059 0.066,0.092 -0.028,-0.06 -0.066,-0.122 -0.066,-0.1836 0.1245,0.3108 0.1206,0.2867 0.08,0.211 0.01,0.023 0.014,0.047 0.014,0.07 0.4721,1.0378 0.944,1.98 1.5098,2.9238 0.3772,0.4721 0.6611,1.0381 1.039,1.5098 0,0.094 0.5667,0.7561 0.2832,0.4726 0.1879,0.189 0.3775,0.4674 0.5665,0.6602 0.7551,0.9437 1.6988,1.887 2.6425,2.6426 0,0.094 0.093,0.095 0.1875,0.1894 0.094,0.098 0.19,0.1887 0.3789,0.2832 0.2831,0.094 0.4724,0.2799 0.7559,0.4727 0.5658,0.2827 1.1311,0.6599 1.6973,0.9433 1.1319,0.5658 2.1694,0.9424 3.6797,1.3203 3.3966,0.8535 7.0776,0.5713 10.7578,0.1934 1.226,-0.095 2.1699,1.038 2.1699,2.1699 0,1.2269 -1.038,2.0774 -2.1699,2.1719 -4.529,0.4705 -8.8702,0.66 -13.211,-0.6621 -5.5668,-1.6978 -10.0968,-5.6626 -12.9277,-10.7578 -1.982,-3.4908 -3.3972,-7.5482 -3.3027,-11.6055 v -0.01 c 0.047,-1.3663 1.1316,-2.0492 2.2051,-2.0605 z m -20.8184,7.1797 c 0,-0.01 0,0.032 0.025,0.1738 0.01,0.01 0.01,0.016 0.016,0.023 -0.014,-0.068 -0.036,-0.1834 -0.041,-0.1972 z"
         transform="scale(0.26458333)" />
    </g>
  </g>
</svg>
