<?xml version="1.0" encoding="UTF-8" standalone="no"?>
<!-- Created with Inkscape (http://www.inkscape.org/) -->

<svg
   width="120mm"
   height="48mm"
   viewBox="0 0 120 48"
   version="1.1"
   id="svg5608"
   inkscape:version="1.1.1 (3bf5ae0d25, 2021-09-20, custom)"
   sodipodi:docname="motley-cue-white.svg"
   xmlns:inkscape="http://www.inkscape.org/namespaces/inkscape"
   xmlns:sodipodi="http://sodipodi.sourceforge.net/DTD/sodipodi-0.dtd"
   xmlns="http://www.w3.org/2000/svg"
   xmlns:svg="http://www.w3.org/2000/svg">
  <sodipodi:namedview
     id="namedview5610"
     pagecolor="#ffffff"
     bordercolor="#666666"
     borderopacity="1.0"
     inkscape:pageshadow="2"
     inkscape:pageopacity="0.0"
     inkscape:pagecheckerboard="true"
     inkscape:document-units="mm"
     showgrid="false"
     fit-margin-top="0"
     fit-margin-left="0"
     fit-margin-right="0"
     fit-margin-bottom="0"
     inkscape:zoom="0.32382506"
     inkscape:cx="-81.83431"
     inkscape:cy="9.2642615"
     inkscape:window-width="1274"
     inkscape:window-height="1397"
     inkscape:window-x="1280"
     inkscape:window-y="37"
     inkscape:window-maximized="1"
     inkscape:current-layer="layer1" />
  <defs
     id="defs5605" />
  <g
     inkscape:label="Layer 1"
     inkscape:groupmode="layer"
     id="layer1"
     transform="translate(-85.893276,-122.9363)">
    <g
       id="g5719"
       transform="translate(2.4998311,1.50025)">
      <text
         xml:space="preserve"
         style="font-style:normal;font-variant:normal;font-weight:500;font-stretch:semi-condensed;font-size:25.4px;line-height:0.75;font-family:'Barlow Semi Condensed';-inkscape-font-specification:'Barlow Semi Condensed, Medium Semi-Condensed';font-variant-ligatures:normal;font-variant-caps:normal;font-variant-numeric:normal;font-variant-east-asian:normal;letter-spacing:0px;word-spacing:0px;writing-mode:lr-tb;white-space:pre;inline-size:74.1581;fill:#ffffff;fill-opacity:0.99;stroke-width:0.264583"
         x="387.04837"
         y="-78.813309"
         id="text459204-3-6-3-9-4"
         transform="translate(-253.643,227.4958)"><tspan
           x="387.04837"
           y="-78.813309"
           id="tspan5775">motley </tspan><tspan
           x="387.04837"
           y="-59.763308"
           id="tspan5777">cue</tspan></text>
      <g
         id="g21626"
         transform="translate(-1314.1087,-2412.5889)">
        <path
           id="path62839-9-5-7"
           style="fill:#ffffff;fill-opacity:0.99;stroke:none;stroke-width:3.77999;stroke-linecap:round;stroke-linejoin:round;stop-color:#000000"
           d="m 1411.0412,2562.0821 c -11.1303,5.4537 -11.0392,18.4426 -11.0392,18.4426 h 45 c 0,0 -0.096,-12.9547 -11.1129,-18.421 -1.5573,1.4921 -3.5382,2.6919 -5.7773,3.4221 -5.1472,1.7485 -11.4179,0.8224 -15.5589,-2.1943 -0.546,-0.3845 -1.0501,-0.8031 -1.5117,-1.2494 z" />
        <path
           id="path58804-2-7-1-6"
           style="font-variation-settings:normal;fill:#ffffff;fill-opacity:0.99;stroke:none;stroke-width:3.78;stroke-linecap:round;stroke-linejoin:round;stroke-miterlimit:4;stroke-dasharray:none;stroke-dashoffset:0;stroke-opacity:1;stop-color:#000000"
           d="m 1422.5678,2535.5252 c -0.2208,0 -0.4417,0.01 -0.6625,0.018 -4.8334,0.1895 -9.4684,2.9882 -11.8138,7.2265 -2.7495,4.7307 -2.3931,11.0419 0.9075,15.4135 3.1468,4.4298 8.9943,6.6871 14.3081,5.5506 5.5688,-1.0374 10.2036,-5.7346 11.1849,-11.3053 0.9902,-4.9439 -0.8987,-10.3341 -4.8018,-13.5408 -2.5302,-2.1271 -5.811,-3.3679 -9.1224,-3.362 z m -0.063,3.837 c 0.2788,0 0.5569,0.01 0.8331,0.023 1.548,0.075 3.0705,0.4245 4.4937,1.0485 2.1222,0.9238 3.8951,2.4471 5.2431,4.3196 0.1747,0.2494 0.05,0.6237 -0.1999,0.7736 -0.2747,0.1747 -0.5987,0.05 -0.7736,-0.2 -1.3731,-1.8724 -3.2955,-3.3949 -5.4426,-4.1439 -0.7239,-0.2497 -1.4731,-0.4244 -2.2221,-0.5493 -0.025,-0.025 -0.075,-0.025 -0.125,-0.025 -0.1499,-0.025 0.125,0.025 -0.025,0 -0.075,0 -0.1498,-0.025 -0.2248,-0.025 -0.1249,-0.026 -0.2746,-0.051 -0.3995,-0.051 -0.2246,0 -0.4744,-0.025 -0.6991,-0.025 -0.4493,-0.024 -0.9235,-0.024 -1.3979,0 -1.0734,0.075 -2.1222,0.2994 -3.1207,0.649 -0.8488,0.2997 -1.673,0.7239 -2.4469,1.2232 -0.6492,0.4245 -1.1482,0.8243 -1.7224,1.3736 -0.3744,0.3744 -0.7491,0.7737 -1.0738,1.1731 -0.013,0.025 -0.031,0.043 -0.05,0.062 0.03,-0.041 -0.031,0.024 -0.05,0.063 0.012,-0.025 0.031,-0.044 0.05,-0.062 -0.01,0.012 -0.022,0.029 -0.05,0.062 -0.025,0.05 -0.05,0.099 -0.1003,0.1499 -0.05,0.05 -0.075,0.074 -0.1,0.125 v 0 c -0.3993,0.6242 -1.373,0.05 -0.9493,-0.5741 0.5242,-0.824 1.248,-1.5482 1.9719,-2.1973 1.4481,-1.2483 3.1459,-2.2218 4.9935,-2.7461 1.1563,-0.3246 2.3781,-0.4515 3.5859,-0.4475 z m -0.1049,2.8417 c 1.7733,-0.023 3.5558,0.4085 5.1568,1.2511 1.0985,0.5742 2.0471,1.3977 2.7962,2.3714 0.674,0.8488 1.2731,1.8479 1.6227,2.8965 0.5241,1.5979 0.649,3.5699 -0.4744,4.918 -0.9239,1.0986 -2.5716,1.4485 -3.9197,1.049 -0.774,-0.225 -1.4231,-0.6744 -1.8975,-1.2986 -0.1249,-0.1498 -0.2495,-0.3497 -0.3245,-0.5245 -0.075,-0.15 -0.15,-0.3492 -0.2,-0.524 -0.025,-0.075 -0.025,-0.1751 -0.05,-0.2501 0,-0.075 -0.025,-0.1235 -0.025,-0.1995 0,0.026 0.025,0.1255 0,-0.024 -0.075,-0.5744 -0.05,-1.0981 -0.3493,-1.5725 -0.2496,-0.3997 -0.6489,-0.6996 -1.0733,-0.8744 -1.1484,-0.4741 -2.5214,-0.2742 -3.2205,0.8744 -0.3245,0.5492 -0.4248,1.1731 -0.3498,1.7973 0,0.075 0.025,0.1498 0.025,0.2248 0.025,0.025 0.025,0.051 0.025,0.1 0.025,0.1497 0.05,0.2996 0.075,0.4744 0.075,0.3746 0.1749,0.7489 0.2997,1.0986 0.025,0.1 0.05,0.1998 0.1,0.2998 0,0.025 0.025,0.074 0.05,0.125 0.05,0.1 -0.025,-0.051 0.025,0.049 0.1,0.1999 0.1997,0.3997 0.2997,0.5994 0.4994,0.8739 1.0485,1.573 1.8475,2.2221 0.9488,0.7991 2.1725,1.373 3.3708,1.7725 0.6991,0.2246 0.3993,1.3233 -0.2997,1.0987 -0.674,-0.2249 -1.3479,-0.4745 -1.972,-0.7989 -1.9474,-0.9738 -3.5205,-2.5718 -4.3444,-4.5941 -0.724,-1.7476 -1.0985,-4.0193 0.2496,-5.5671 1.7726,-2.0473 5.6922,-1.1986 6.2415,1.5477 0.025,0.2247 0.075,0.4245 0.075,0.6243 0.025,0.1249 -0.025,0.2993 0.025,0.4242 -0.1,-0.2245 -0.025,-0.025 0,0.075 0,0.075 0.025,0.1751 0.05,0.2501 0.05,0.1498 0.075,0.1992 0.1245,0.2992 0.2495,0.474 0.5995,0.8241 1.0739,1.0738 0.6242,0.3246 1.373,0.3744 2.0221,0.1747 0.2996,-0.075 0.5988,-0.1997 0.8485,-0.3995 0.05,-0.025 0.125,-0.1001 0.2,-0.1752 l 0.1251,-0.1245 0.05,-0.075 c 0.2994,-0.3993 0.3993,-0.6743 0.4743,-1.1736 v -0.1 -0.1752 -0.3246 c 0,-0.2245 2e-4,-0.4246 -0.025,-0.6242 0,-0.025 -0.025,-0.2495 0,-0.1 0,-0.05 -0.025,-0.1009 -0.025,-0.1499 -0.025,-0.1 -0.025,-0.1984 -0.05,-0.2744 -0.025,-0.1497 -0.05,-0.2998 -0.1003,-0.4496 -0.05,-0.1748 -0.1,-0.3496 -0.1746,-0.5245 -0.025,-0.025 -0.05,-0.1 0,0 -0.075,-0.175 -0.1746,-0.3495 -0.2497,-0.5245 -0.1497,-0.3246 -0.3249,-0.6487 -0.4996,-0.9483 -0.3245,-0.5492 -0.6737,-1.0734 -1.123,-1.5229 -0.824,-0.8739 -1.8479,-1.5234 -2.9714,-1.9476 -1.423,-0.5494 -2.9461,-0.7739 -4.469,-0.6243 -1.3983,0.1249 -2.7462,0.6493 -3.9196,1.3983 -0.4742,0.2996 -0.8738,0.624 -1.2733,0.9984 -0.3496,0.3246 -0.649,0.6743 -0.8987,1.0237 -0.5493,0.7742 -0.8489,1.4981 -1.0986,2.3968 -0.075,0.1998 -0.1,0.4245 -0.1499,0.6491 -0.025,0.1 -0.025,0.1997 -0.05,0.2997 0,0.011 0,0.045 -0.01,0.07 0,-0.01 0,-0.014 0.01,-0.021 -0.014,0.07 -0.012,0.053 -0.01,0.021 -0.016,0.043 -0.017,0.085 -0.017,0.1292 -0.05,0.3995 -0.075,0.8238 -0.075,1.2232 0,0.3997 10e-5,0.7743 0.05,1.1488 0,0.1 0.025,0.1992 0.025,0.2992 0.025,0.05 0.025,0.074 0.025,0.1251 0.025,0.1496 0.05,0.3246 0.075,0.4743 0.1248,0.7239 0.2742,1.423 0.5488,2.0971 v 0 c 0.1249,0.2996 -0.1247,0.6484 -0.2744,0.6744 -0.3247,0.1 -0.5742,-0.1 -0.6992,-0.3995 0,-0.05 -0.025,-0.098 -0.05,-0.1494 -0.3495,-0.9988 -0.549,-2.0473 -0.649,-3.0959 -0.1749,-1.7474 0.025,-3.5202 0.6991,-5.118 0.8739,-2.0723 2.6215,-3.6456 4.6437,-4.5692 1.278,-0.5899 2.6515,-0.8831 4.0307,-0.9013 z m 0.042,2.8882 c 2.0026,-0.014 4.0696,0.8332 5.3149,2.406 0.8987,1.1235 1.4732,2.5466 1.4232,3.9946 v 0 c 0,0.7484 -1.1484,0.7485 -1.1984,0.049 0,-0.1746 2e-4,-0.3745 -0.025,-0.5741 0,-0.05 -0.025,-0.2494 0,-0.05 0,-0.075 -0.025,-0.125 -0.025,-0.2 -0.05,-0.3245 -0.1496,-0.6244 -0.2496,-0.924 -0.025,-0.075 -0.075,-0.174 -0.1,-0.2491 -0.05,-0.126 0.025,0.074 -0.025,-0.051 0,-0.05 -0.025,-0.074 -0.05,-0.1251 -0.075,-0.1747 -0.1496,-0.3495 -0.2496,-0.4992 -0.2497,-0.4245 -0.4242,-0.6489 -0.7488,-0.9735 -0.5993,-0.6239 -1.3482,-1.0738 -2.2221,-1.3483 -1.1734,-0.3745 -2.4216,-0.4244 -3.6199,-0.025 -0.5244,0.1748 -0.9739,0.4244 -1.4232,0.724 -0.3246,0.2496 -0.5746,0.4242 -0.8992,0.7488 -0.6492,0.649 -1.0983,1.4983 -1.2981,2.4221 -0.1,0.4744 -0.1499,0.9487 -0.1499,1.448 0,0.2246 0.025,0.4739 0.05,0.6986 0,0.075 0.025,0.1751 0.025,0.2502 0,0.027 0,0.029 0.01,0.033 0.019,0.026 0.02,0.069 0.02,0.092 0.025,0.1497 0.05,0.3242 0.1,0.4992 0.4493,2.1219 1.5982,3.9942 3.1461,5.4922 0.5242,0.4996 -0.2746,1.2987 -0.7989,0.7994 -1.8476,-1.7726 -3.171,-4.0948 -3.5455,-6.6414 -0.1997,-1.3981 -0.1,-2.8461 0.4743,-4.1693 0.8988,-2.0222 3.0458,-3.4952 5.2178,-3.7698 0.2809,-0.037 0.5661,-0.057 0.8521,-0.059 z m 0.031,5.8027 c 0.284,0 0.5648,0.1719 0.5648,0.5215 v 0.449 c 0,0 0,0.022 0,0.033 0.01,-0.011 0.022,0.097 0.022,0.1168 0.05,0.2247 0.1,0.4496 0.1747,0.6744 0.05,0.1246 0.075,0.2492 0.125,0.3741 0.025,0.075 0.05,0.125 0.075,0.2 0.01,0.01 0.012,0.016 0.017,0.024 -0.01,-0.016 -0.017,-0.032 -0.017,-0.049 0.033,0.082 0.032,0.076 0.021,0.056 0,0.01 0,0.012 0,0.018 0.1249,0.2746 0.2498,0.5239 0.3995,0.7736 0.1,0.1249 0.1749,0.2746 0.2749,0.3995 0,0.025 0.1499,0.2 0.075,0.125 0.05,0.05 0.1,0.1237 0.1499,0.1747 0.1998,0.2497 0.4495,0.4992 0.6992,0.6992 0,0.025 0.025,0.025 0.05,0.05 0.025,0.026 0.05,0.05 0.1002,0.075 0.075,0.025 0.125,0.074 0.2,0.1251 0.1497,0.075 0.2993,0.1746 0.4491,0.2496 0.2995,0.1497 0.574,0.2493 0.9736,0.3493 0.8987,0.2258 1.8726,0.1511 2.8463,0.051 0.3244,-0.025 0.5741,0.2746 0.5741,0.5741 0,0.3246 -0.2746,0.5496 -0.5741,0.5746 -1.1983,0.1245 -2.3469,0.1746 -3.4954,-0.1752 -1.4729,-0.4492 -2.6714,-1.4982 -3.4204,-2.8463 -0.5244,-0.9236 -0.8989,-1.9971 -0.8739,-3.0706 v 0 c 0.013,-0.3615 0.2994,-0.5421 0.5835,-0.5451 z m -5.5082,1.8997 c 0,0 0,0.01 0.01,0.046 0,0 0,0 0,0.01 0,-0.018 -0.01,-0.049 -0.011,-0.052 z" />
      </g>
    </g>
  </g>
</svg>
