<?xml version="1.0" encoding="UTF-8" standalone="no"?>
<!-- Created with Inkscape (http://www.inkscape.org/) -->

<svg
   width="48mm"
   height="48mm"
   viewBox="0 0 48 48"
   version="1.1"
   id="svg6486"
   inkscape:version="1.1.1 (3bf5ae0d25, 2021-09-20, custom)"
   sodipodi:docname="motley-cue-black-notext.svg"
   xmlns:inkscape="http://www.inkscape.org/namespaces/inkscape"
   xmlns:sodipodi="http://sodipodi.sourceforge.net/DTD/sodipodi-0.dtd"
   xmlns="http://www.w3.org/2000/svg"
   xmlns:svg="http://www.w3.org/2000/svg">
  <sodipodi:namedview
     id="namedview6488"
     pagecolor="#ffffff"
     bordercolor="#666666"
     borderopacity="1.0"
     inkscape:pageshadow="2"
     inkscape:pageopacity="0.0"
     inkscape:pagecheckerboard="0"
     inkscape:document-units="mm"
     showgrid="false"
     fit-margin-top="0"
     fit-margin-left="0"
     fit-margin-right="0"
     fit-margin-bottom="0"
     inkscape:zoom="0.64765011"
     inkscape:cx="76.430157"
     inkscape:cy="84.922397"
     inkscape:window-width="1274"
     inkscape:window-height="1397"
     inkscape:window-x="1280"
     inkscape:window-y="37"
     inkscape:window-maximized="1"
     inkscape:current-layer="layer1" />
  <defs
     id="defs6483" />
  <g
     inkscape:label="Layer 1"
     inkscape:groupmode="layer"
     id="layer1"
     transform="translate(-82.695976,-125.796)">
    <g
       id="g23998"
       transform="translate(-1309.4605,-2277.4201)">
      <path
         id="path62839-9-5"
         style="fill:#000000;fill-opacity:1;stroke:none;stroke-width:3.77999;stroke-linecap:round;stroke-linejoin:round;stop-color:#000000"
         d="m 1404.6957,2431.2732 c -11.1303,5.4537 -11.0392,18.4426 -11.0392,18.4426 h 45 c 0,0 -0.096,-12.9547 -11.1129,-18.421 -1.5573,1.4921 -3.5382,2.6919 -5.7773,3.4221 -5.1472,1.7485 -11.4179,0.8224 -15.5589,-2.1943 -0.546,-0.3845 -1.0501,-0.8031 -1.5117,-1.2494 z" />
      <path
         id="path58804-2-7-1"
         style="font-variation-settings:normal;fill:#000000;fill-opacity:1;stroke:none;stroke-width:3.78;stroke-linecap:round;stroke-linejoin:round;stroke-miterlimit:4;stroke-dasharray:none;stroke-dashoffset:0;stroke-opacity:1;stop-color:#000000"
         d="m 1416.2223,2404.7163 c -0.2207,0 -0.4417,0.01 -0.6624,0.018 -4.8335,0.1895 -9.4684,2.9881 -11.8138,7.2264 -2.7495,4.7307 -2.3932,11.0419 0.9074,15.4135 3.1468,4.4298 8.9944,6.6871 14.3082,5.5506 5.5688,-1.0374 10.2036,-5.7346 11.1848,-11.3053 0.9902,-4.9439 -0.8986,-10.334 -4.8017,-13.5407 -2.5303,-2.1271 -5.811,-3.368 -9.1225,-3.3621 z m -0.062,3.837 c 0.2787,0 0.5569,0.01 0.833,0.023 1.548,0.075 3.0706,0.4245 4.4938,1.0485 2.1221,0.9238 3.895,2.4471 5.2431,4.3196 0.1747,0.2494 0.05,0.6237 -0.2,0.7736 -0.2746,0.1747 -0.5987,0.05 -0.7736,-0.1999 -1.3731,-1.8724 -3.2954,-3.395 -5.4426,-4.144 -0.7239,-0.2497 -1.473,-0.4244 -2.222,-0.5493 -0.025,-0.025 -0.075,-0.025 -0.1251,-0.025 -0.1499,-0.025 0.125,0.025 -0.025,0 -0.075,0 -0.1498,-0.025 -0.2248,-0.025 -0.1249,-0.026 -0.2746,-0.051 -0.3995,-0.051 -0.2246,0 -0.4745,-0.025 -0.6992,-0.025 -0.4493,-0.024 -0.9234,-0.024 -1.3978,0 -1.0734,0.075 -2.1223,0.2995 -3.1208,0.6491 -0.8488,0.2996 -1.6729,0.7239 -2.4468,1.2232 -0.6492,0.4245 -1.1482,0.8242 -1.7224,1.3735 -0.3744,0.3744 -0.7492,0.7737 -1.0739,1.1731 -0.012,0.025 -0.031,0.043 -0.05,0.062 0.03,-0.041 -0.031,0.024 -0.05,0.063 0.013,-0.025 0.031,-0.044 0.05,-0.062 -0.01,0.012 -0.022,0.029 -0.05,0.062 -0.025,0.05 -0.05,0.099 -0.1002,0.1499 -0.05,0.05 -0.075,0.074 -0.1,0.125 v 0 c -0.3993,0.6243 -1.373,0.05 -0.9493,-0.5741 0.5242,-0.824 1.2481,-1.5482 1.972,-2.1973 1.4481,-1.2483 3.1459,-2.2217 4.9935,-2.746 1.1562,-0.3246 2.3781,-0.4516 3.5858,-0.4476 z m -0.1049,2.8417 c 1.7733,-0.023 3.5558,0.4085 5.1568,1.2511 1.0985,0.5742 2.0471,1.3977 2.7962,2.3714 0.6739,0.8488 1.273,1.8479 1.6226,2.8965 0.5241,1.5979 0.6491,3.5699 -0.4743,4.918 -0.9239,1.0987 -2.5716,1.4485 -3.9197,1.0491 -0.774,-0.225 -1.4232,-0.6745 -1.8976,-1.2987 -0.1249,-0.1497 -0.2495,-0.3497 -0.3245,-0.5245 -0.075,-0.15 -0.15,-0.3492 -0.2,-0.524 -0.025,-0.075 -0.025,-0.1751 -0.05,-0.2501 0,-0.075 -0.025,-0.1234 -0.025,-0.1995 0,0.026 0.025,0.1256 0,-0.024 -0.075,-0.5744 -0.05,-1.0981 -0.3493,-1.5725 -0.2496,-0.3997 -0.6489,-0.6996 -1.0733,-0.8744 -1.1484,-0.4741 -2.5214,-0.2742 -3.2205,0.8744 -0.3245,0.5492 -0.4249,1.1731 -0.3499,1.7973 0,0.075 0.025,0.1498 0.025,0.2248 0.025,0.025 0.025,0.051 0.025,0.1 0.025,0.1497 0.05,0.2996 0.075,0.4744 0.075,0.3746 0.1749,0.749 0.2997,1.0987 0.025,0.1 0.05,0.1997 0.1,0.2997 0,0.025 0.025,0.074 0.05,0.125 0.05,0.1 -0.025,-0.051 0.025,0.049 0.1,0.1999 0.1997,0.3998 0.2997,0.5995 0.4994,0.8738 1.0484,1.5729 1.8474,2.222 0.9488,0.7992 2.1726,1.373 3.3709,1.7726 0.6991,0.2245 0.3993,1.3232 -0.2998,1.0986 -0.674,-0.2249 -1.3478,-0.4744 -1.9719,-0.7989 -1.9474,-0.9738 -3.5206,-2.5718 -4.3444,-4.5941 -0.7241,-1.7476 -1.0986,-4.0193 0.2495,-5.5671 1.7726,-2.0473 5.6922,-1.1985 6.2415,1.5478 0.025,0.2246 0.075,0.4244 0.075,0.6242 0.025,0.1249 -0.025,0.2994 0.025,0.4243 -0.1,-0.2245 -0.025,-0.025 0,0.075 0,0.075 0.025,0.1751 0.05,0.2501 0.05,0.1498 0.075,0.1992 0.1246,0.2992 0.2495,0.474 0.5994,0.8242 1.0738,1.0738 0.6242,0.3247 1.373,0.3744 2.0221,0.1747 0.2996,-0.075 0.5989,-0.1996 0.8485,-0.3995 0.05,-0.025 0.125,-0.1001 0.2,-0.1751 l 0.1251,-0.1246 0.05,-0.075 c 0.2995,-0.3993 0.3994,-0.6743 0.4744,-1.1736 v -0.1 -0.1752 -0.3245 c 0,-0.2246 2e-4,-0.4247 -0.025,-0.6243 0,-0.025 -0.025,-0.2495 0,-0.1 0,-0.05 -0.025,-0.1009 -0.025,-0.1499 -0.025,-0.1 -0.025,-0.1984 -0.05,-0.2744 -0.025,-0.1497 -0.05,-0.2997 -0.1002,-0.4495 -0.05,-0.1749 -0.1,-0.3497 -0.1747,-0.5246 -0.025,-0.025 -0.05,-0.1 0,0 -0.075,-0.175 -0.1746,-0.3495 -0.2496,-0.5245 -0.1498,-0.3246 -0.3249,-0.6486 -0.4997,-0.9482 -0.3244,-0.5493 -0.6736,-1.0734 -1.1229,-1.5229 -0.824,-0.8739 -1.8479,-1.5234 -2.9714,-1.9477 -1.423,-0.5493 -2.9461,-0.7739 -4.469,-0.6243 -1.3983,0.1249 -2.7463,0.6493 -3.9197,1.3984 -0.4742,0.2995 -0.8738,0.6239 -1.2733,0.9984 -0.3496,0.3246 -0.6489,0.6742 -0.8986,1.0237 -0.5493,0.7742 -0.849,1.498 -1.0986,2.3967 -0.075,0.1998 -0.1,0.4245 -0.1499,0.6491 -0.025,0.1 -0.025,0.1997 -0.05,0.2997 0,0.011 -0.01,0.045 -0.01,0.07 0,-0.01 0,-0.014 0.01,-0.021 -0.014,0.07 -0.013,0.053 -0.01,0.021 -0.016,0.043 -0.017,0.085 -0.017,0.1292 -0.05,0.3995 -0.075,0.8237 -0.075,1.2232 0,0.3996 10e-5,0.7742 0.05,1.1487 0,0.1 0.025,0.1992 0.025,0.2992 0.025,0.05 0.025,0.074 0.025,0.1251 0.025,0.1496 0.051,0.3246 0.075,0.4744 0.1248,0.7239 0.2742,1.4229 0.5488,2.097 v 0 c 0.1249,0.2996 -0.1247,0.6484 -0.2744,0.6744 -0.3247,0.1 -0.5743,-0.1 -0.6992,-0.3995 0,-0.05 -0.025,-0.098 -0.05,-0.1493 -0.3495,-0.9988 -0.5491,-2.0474 -0.6491,-3.096 -0.1748,-1.7474 0.025,-3.5202 0.6992,-5.118 0.8739,-2.0723 2.6214,-3.6455 4.6437,-4.5692 1.2779,-0.5898 2.6515,-0.8831 4.0307,-0.9013 z m 0.042,2.8882 c 2.0026,-0.014 4.0697,0.8332 5.315,2.4061 0.8987,1.1235 1.4731,2.5466 1.4231,3.9946 v 0 c 0,0.7484 -1.1483,0.7484 -1.1983,0.049 0,-0.1745 2e-4,-0.3745 -0.025,-0.5741 0,-0.05 -0.025,-0.2494 0,-0.05 0,-0.075 -0.025,-0.125 -0.025,-0.2 -0.05,-0.3245 -0.1496,-0.6243 -0.2496,-0.924 -0.025,-0.075 -0.075,-0.174 -0.1,-0.249 -0.05,-0.126 0.025,0.074 -0.025,-0.051 0,-0.05 -0.025,-0.074 -0.05,-0.125 -0.075,-0.1748 -0.1496,-0.3495 -0.2496,-0.4992 -0.2497,-0.4245 -0.4242,-0.6489 -0.7488,-0.9736 -0.5993,-0.6239 -1.3481,-1.0738 -2.222,-1.3483 -1.1734,-0.3745 -2.4217,-0.4244 -3.62,-0.025 -0.5244,0.1748 -0.9739,0.4243 -1.4232,0.7239 -0.3245,0.2497 -0.5745,0.4242 -0.8991,0.7488 -0.6492,0.649 -1.0983,1.4983 -1.2981,2.4221 -0.1,0.4744 -0.1499,0.9487 -0.1499,1.448 0,0.2246 0.025,0.474 0.05,0.6986 0,0.075 0.025,0.1752 0.025,0.2502 0,0.027 0,0.029 0,0.033 0.019,0.026 0.02,0.069 0.02,0.092 0.025,0.1497 0.05,0.3242 0.1,0.4992 0.4493,2.1219 1.5982,3.9942 3.1461,5.4922 0.5241,0.4996 -0.2747,1.2987 -0.799,0.7994 -1.8476,-1.7726 -3.171,-4.0947 -3.5455,-6.6414 -0.1997,-1.398 -0.1,-2.8461 0.4744,-4.1693 0.8988,-2.0222 3.0458,-3.4952 5.2178,-3.7698 0.2808,-0.037 0.566,-0.057 0.8521,-0.059 z m 0.031,5.8028 c 0.284,0 0.5648,0.1719 0.5648,0.5214 v 0.4491 c 0,0 0,0.022 0,0.033 0.01,-0.011 0.022,0.097 0.022,0.1168 0.05,0.2247 0.1,0.4496 0.1746,0.6744 0.05,0.1246 0.075,0.2492 0.1251,0.3741 0.025,0.075 0.05,0.125 0.075,0.2 0.01,0.01 0.012,0.016 0.017,0.024 -0.01,-0.016 -0.017,-0.032 -0.017,-0.048 0.033,0.082 0.032,0.076 0.021,0.056 0,0.01 0,0.012 0,0.019 0.1249,0.2746 0.2497,0.5239 0.3994,0.7736 0.1,0.1249 0.175,0.2747 0.2749,0.3995 0,0.025 0.15,0.2 0.075,0.125 0.05,0.05 0.1,0.1237 0.1499,0.1747 0.1998,0.2497 0.4494,0.4993 0.6991,0.6992 0,0.025 0.025,0.025 0.05,0.05 0.025,0.026 0.05,0.05 0.1003,0.075 0.075,0.025 0.125,0.074 0.2,0.1251 0.1497,0.075 0.2993,0.1746 0.4491,0.2496 0.2994,0.1497 0.5739,0.2493 0.9736,0.3493 0.8986,0.2258 1.8726,0.1512 2.8463,0.051 0.3244,-0.025 0.5741,0.2746 0.5741,0.5741 0,0.3246 -0.2746,0.5496 -0.5741,0.5746 -1.1983,0.1245 -2.3469,0.1747 -3.4954,-0.1751 -1.4729,-0.4492 -2.6715,-1.4983 -3.4205,-2.8464 -0.5244,-0.9236 -0.8988,-1.9971 -0.8738,-3.0706 v 0 c 0.012,-0.3615 0.2994,-0.5422 0.5834,-0.5452 z m -5.5082,1.8996 c 0,0 0,0.01 0.01,0.046 0,0 0,0 0,0.01 0,-0.018 -0.01,-0.049 -0.011,-0.052 z" />
    </g>
  </g>
</svg>
